<?xml version="1.0" standalone="no"?>
<!DOCTYPE svg PUBLIC "-//W3C//DTD SVG 20010904//EN"
 "http://www.w3.org/TR/2001/REC-SVG-20010904/DTD/svg10.dtd">
<svg version="1.0" xmlns="http://www.w3.org/2000/svg"
 width="374.000000pt" height="250.000000pt" viewBox="0 0 374.000000 250.000000"
 preserveAspectRatio="xMidYMid meet">

<g transform="translate(0.000000,250.000000) scale(0.100000,-0.100000)"
fill="#000000" stroke="none">
<path d="M312 2474 c-113 -30 -215 -116 -266 -224 l-31 -65 0 -935 0 -935 27
-57 c37 -79 82 -132 149 -177 115 -77 2 -72 1704 -69 l1520 3 68 32 c122 58
210 169 237 299 7 33 10 344 8 935 -3 871 -3 885 -24 935 -47 115 -133 202
-241 246 l-58 23 -1520 2 c-1294 2 -1528 0 -1573 -13z m478 -269 l0 -145 -38
0 c-41 0 -75 -19 -94 -53 -6 -12 -15 -89 -19 -172 -4 -82 -13 -166 -18 -186
-15 -50 -50 -99 -88 -125 l-32 -21 44 -32 c68 -48 86 -107 94 -303 7 -189 16
-207 99 -222 l52 -10 0 -106 0 -107 -112 -17 c-62 -9 -127 -19 -143 -21 -22
-4 -43 3 -76 24 -83 52 -108 144 -109 391 0 112 -4 142 -20 178 -20 43 -63 72
-110 72 -19 0 -20 6 -20 149 l0 149 32 7 c96 20 110 54 119 285 9 212 22 271
75 330 52 57 117 76 277 79 l87 1 0 -145z m2350 137 c0 -4 21 -6 48 -4 l47 3
-32 -20 c-18 -11 -54 -31 -81 -45 -43 -22 -85 -56 -68 -56 12 0 120 57 159 84
37 25 77 34 77 18 0 -5 -48 -37 -107 -72 -125 -74 -118 -69 -111 -75 6 -6 116
51 196 102 55 35 67 39 77 24 3 -5 -54 -46 -127 -90 -73 -45 -129 -81 -126
-81 11 0 180 91 227 122 30 20 47 26 54 19 6 -6 9 -12 6 -15 -2 -2 -75 -47
-161 -99 -208 -127 -202 -128 -205 56 l-1 137 64 0 c35 0 64 -3 64 -8z m268
-124 c-3 -7 -37 -33 -76 -57 -40 -24 -70 -46 -68 -48 4 -5 114 53 131 68 5 5
15 9 22 9 29 0 9 -21 -64 -66 -43 -26 -89 -54 -101 -61 -13 -8 -21 -17 -18
-20 3 -3 48 20 101 51 53 31 98 56 101 56 2 0 4 -6 4 -12 0 -7 -32 -32 -70
-56 -39 -24 -70 -47 -70 -53 0 -15 12 -11 83 27 l67 35 0 -44 c0 -27 -5 -48
-12 -51 -10 -5 -10 -7 0 -12 6 -3 12 -13 12 -23 0 -9 -6 -23 -12 -30 -10 -11
-10 -14 0 -18 7 -3 12 -22 12 -47 0 -39 -3 -43 -45 -66 -24 -13 -43 -26 -40
-28 2 -2 13 1 24 8 16 8 21 8 21 -1 0 -8 4 -8 13 -1 17 15 32 3 41 -32 4 -16
20 -41 36 -57 l28 -29 -131 -66 -131 -67 -32 36 c-44 48 -54 87 -64 265 -10
160 -16 184 -57 218 l-25 21 73 36 c41 19 110 56 154 81 84 48 99 54 93 34z
m-1409 -619 c-59 -226 -109 -412 -111 -413 -10 -8 -140 -47 -144 -44 -4 4 47
209 152 610 35 136 64 249 64 252 0 3 33 6 73 6 l74 0 -108 -411z m-379 204
l0 -118 -238 -84 c-130 -46 -241 -87 -245 -91 -5 -4 31 -22 80 -39 48 -18 159
-58 246 -89 l157 -57 -2 -105 -3 -105 -30 1 c-16 1 -198 67 -402 145 l-373
144 0 101 0 101 318 123 c174 68 353 138 397 156 44 18 83 33 88 33 4 1 7 -52
7 -116z m1115 -97 c94 -37 186 -73 205 -80 l34 -13 -43 -22 c-77 -40 -304
-142 -383 -172 -74 -29 -122 -60 -58 -37 17 5 33 9 35 7 2 -2 -73 -31 -166
-65 l-169 -61 0 32 c0 30 4 34 48 49 220 75 441 160 431 167 -7 4 -117 44
-246 90 l-233 83 0 117 0 117 188 -73 c103 -40 264 -103 357 -139z m870 -75
c-10 -9 -296 -156 -350 -179 -25 -11 -28 -11 -17 0 15 16 342 184 362 186 8 1
10 -1 5 -7z m-615 -46 c0 -2 -10 -9 -22 -15 -22 -11 -22 -10 -4 4 21 17 26 19
26 11z m-100 -55 c-30 -16 -59 -29 -65 -29 -5 0 15 13 45 29 30 16 60 29 65
29 6 0 -15 -13 -45 -29z m-1555 -800 c-1 -207 -6 -239 -47 -286 -49 -56 -82
-68 -179 -68 -74 0 -91 3 -130 26 -26 15 -53 42 -67 66 -22 40 -29 86 -14 96
5 3 43 8 85 12 75 7 77 6 77 -15 0 -35 19 -61 44 -61 46 0 51 20 54 222 l4
189 86 -3 87 -3 0 -175z m285 -85 l0 -265 -85 0 -85 0 0 265 0 265 85 0 85 0
0 -265z m600 195 l0 -70 -85 0 -85 0 0 -195 0 -195 -90 0 -90 0 0 195 0 195
-85 0 -85 0 0 70 0 70 260 0 260 0 0 -70z m264 -115 l60 -180 59 183 59 182
90 0 c81 0 90 -2 85 -17 -3 -10 -49 -129 -103 -265 l-98 -248 -96 0 -95 0
-102 258 c-57 141 -103 261 -103 265 0 4 41 6 92 5 l91 -3 61 -180z m-586
-404 c11 -14 10 -16 -9 -19 -12 -2 -26 1 -32 7 -17 17 -37 13 -37 -7 0 -13 11
-21 37 -28 59 -14 76 -75 29 -106 -35 -24 -116 4 -116 39 0 18 36 17 44 -2 3
-8 17 -15 31 -15 40 0 33 36 -10 50 -45 15 -68 46 -54 72 21 39 89 44 117 9z
m-568 4 c0 -11 -11 -15 -40 -15 -33 0 -40 -3 -40 -20 0 -16 7 -20 35 -20 24 0
35 -5 35 -15 0 -10 -11 -15 -35 -15 -34 0 -35 -1 -35 -40 0 -33 -3 -40 -20
-40 -19 0 -20 7 -20 90 l0 90 60 0 c47 0 60 -3 60 -15z m240 -75 c0 -83 -1
-90 -20 -90 -19 0 -20 7 -20 90 0 83 1 90 20 90 19 0 20 -7 20 -90z m80 0 c0
-83 -1 -90 -20 -90 -19 0 -20 7 -20 90 0 83 1 90 20 90 19 0 20 -7 20 -90z
m770 45 c0 -49 8 -56 28 -25 7 11 22 20 33 20 20 0 20 -2 6 -23 -13 -21 -13
-26 4 -57 23 -44 23 -50 0 -50 -11 0 -23 12 -31 30 -10 24 -15 28 -26 19 -8
-6 -14 -20 -14 -30 0 -12 -7 -19 -20 -19 -19 0 -20 7 -20 90 0 83 1 90 20 90
17 0 20 -7 20 -45z m-420 15 c0 -11 7 -20 15 -20 8 0 15 -5 15 -10 0 -6 -7
-13 -15 -16 -9 -4 -15 -19 -15 -39 0 -20 6 -35 15 -39 25 -9 17 -26 -14 -26
-32 0 -41 14 -41 66 0 19 -4 34 -10 34 -5 0 -10 7 -10 15 0 8 4 15 9 15 5 0
11 9 14 20 3 11 12 20 21 20 9 0 16 -8 16 -20z m-600 -53 c0 -38 22 -73 38
-63 7 4 12 27 12 52 0 37 3 44 20 44 18 0 20 -7 20 -65 0 -50 -3 -65 -14 -65
-8 0 -18 5 -21 10 -5 8 -11 7 -20 0 -8 -6 -24 -10 -37 -8 -21 3 -23 9 -26 66
-2 51 0 62 13 62 10 0 15 -10 15 -33z m768 21 c18 -18 16 -118 -3 -118 -8 0
-15 4 -15 9 0 5 -13 5 -29 -2 -32 -12 -59 -5 -67 18 -9 22 12 42 51 49 22 4
35 13 35 22 0 13 -8 14 -40 9 -25 -4 -40 -3 -40 3 0 22 88 30 108 10z m162 -3
c18 -22 5 -30 -25 -17 -38 17 -69 -20 -46 -57 6 -10 20 -11 52 -6 l44 7 -19
-21 c-23 -25 -77 -28 -100 -5 -9 8 -16 31 -16 49 0 18 7 41 16 49 20 20 78 21
94 1z"/>
<path d="M3088 2309 c-21 -11 -38 -21 -38 -24 0 -8 59 17 71 31 15 18 12 17
-33 -7z"/>
<path d="M1907 796 c-7 -18 1 -26 25 -26 16 0 17 3 8 20 -13 23 -26 26 -33 6z"/>
<path d="M2113 219 c-27 -10 -30 -27 -7 -36 19 -7 37 9 32 30 -2 11 -9 12 -25
6z"/>
</g>
</svg>
